<svg width="33" height="32" viewBox="0 0 33 32" fill="none" xmlns="http://www.w3.org/2000/svg">
<path d="M8.20889 25.6665H18.1244C18.8771 25.6665 19.4693 25.0421 19.3193 24.3045C18.9053 22.2681 17.5529 18.6665 13.1667 18.6665C8.7804 18.6665 7.42805 22.2681 7.01397 24.3045C6.86398 25.0421 7.45622 25.6665 8.20889 25.6665Z" stroke="#3F3F55" stroke-width="1.5" stroke-linecap="round" stroke-linejoin="round"/>
<path d="M21.5 18.6665C24.2717 18.6665 25.4069 21.5304 25.8652 23.5945C26.1127 24.7092 25.2111 25.6665 24.0692 25.6665H22.8333" stroke="#3F3F55" stroke-width="1.5" stroke-linecap="round" stroke-linejoin="round"/>
<path d="M13.1667 13.6668C15.1917 13.6668 16.8333 12.0252 16.8333 10.0002C16.8333 7.97512 15.1917 6.3335 13.1667 6.3335C11.1416 6.3335 9.5 7.97512 9.5 10.0002C9.5 12.0252 11.1416 13.6668 13.1667 13.6668Z" stroke="#3F3F55" stroke-width="1.5" stroke-linecap="round" stroke-linejoin="round"/>
<path d="M20.1667 13.6668C22.1917 13.6668 23.5 12.0252 23.5 10.0002C23.5 7.97512 22.1917 6.3335 20.1667 6.3335" stroke="#3F3F55" stroke-width="1.5" stroke-linecap="round" stroke-linejoin="round"/>
</svg>
