<svg width="32" height="32" viewBox="0 0 32 32" fill="none" xmlns="http://www.w3.org/2000/svg">
<path d="M7.70852 25.666H17.624C18.3767 25.666 18.969 25.0416 18.819 24.304C18.405 22.2676 17.0526 18.666 12.6663 18.666C8.28003 18.666 6.92768 22.2676 6.5136 24.304C6.36362 25.0416 6.95586 25.666 7.70852 25.666Z" stroke="#3F3F55" stroke-width="1.5" stroke-linecap="round" stroke-linejoin="round"/>
<path d="M21 18.666C23.7717 18.666 24.9069 21.5299 25.3652 23.594C25.6127 24.7087 24.7111 25.666 23.5692 25.666H22.3333" stroke="#3F3F55" stroke-width="1.5" stroke-linecap="round" stroke-linejoin="round"/>
<path d="M12.6667 13.6673C14.6917 13.6673 16.3333 12.0257 16.3333 10.0007C16.3333 7.97561 14.6917 6.33398 12.6667 6.33398C10.6416 6.33398 9 7.97561 9 10.0007C9 12.0257 10.6416 13.6673 12.6667 13.6673Z" stroke="#3F3F55" stroke-width="1.5" stroke-linecap="round" stroke-linejoin="round"/>
<path d="M19.667 13.6673C21.6921 13.6673 23.0003 12.0257 23.0003 10.0007C23.0003 7.97561 21.6921 6.33398 19.667 6.33398" stroke="#3F3F55" stroke-width="1.5" stroke-linecap="round" stroke-linejoin="round"/>
</svg>
